<svg width="247" height="44" viewBox="0 0 247 44" fill="none" xmlns="http://www.w3.org/2000/svg">
<path d="M25 35L0 0H12.5L29.5 24.5L45.5 0H55.5L32.5 35H25Z" fill="#003366"/>
<path d="M137 34V0H181.5V5H147V13.5H167V19.5H147V28H181.5V34H137Z" fill="#003366"/>
<path d="M194.5 28V5C194.5 0 199.5 0 199.5 0H241.5C245.5 0 246.5 1.66667 246.5 2.5V8.5L236.5 10V6.5H204.5V28H236.5V19.5H220.5V13.5H246.5V29C246.5 33 243.5 34 240.5 34H201C195.5 34 194.167 29.6667 194.5 28Z" fill="#003366"/>
<path fill-rule="evenodd" clip-rule="evenodd" d="M67 5V29.5C67 31.3333 68.3 35 73.5 35H96L101 43.5H109.5L104.5 35H115C116.5 35.1667 119.5 34.6 119.5 31V5C119.5 3.33333 118.6 0 115 0H72C72 0 67 1 67 5ZM76.5 5V28H92L88 20.5H96L99.5 28H109.5V5H76.5Z" fill="#003366"/>
</svg>
